<svg width="235" height="235" viewBox="0 0 235 235" fill="none" xmlns="http://www.w3.org/2000/svg">
<path d="M117.083 0C181.748 0 234.167 52.4182 234.167 117.083C234.182 134.662 230.231 152.018 222.609 167.858C214.986 183.698 203.889 197.615 190.143 208.572L187.345 210.75H210.75C213.734 210.753 216.605 211.896 218.775 213.945C220.945 215.993 222.25 218.793 222.425 221.772C222.6 224.751 221.631 227.685 219.715 229.973C217.8 232.262 215.083 233.732 212.12 234.085L210.75 234.167H117.083C52.4182 234.167 0 181.748 0 117.083C0 52.4182 52.4182 0 117.083 0ZM117.083 23.4167C92.2414 23.4167 68.4169 33.2851 50.851 50.851C33.2851 68.4169 23.4167 92.2414 23.4167 117.083C23.4167 141.925 33.2851 165.75 50.851 183.316C68.4169 200.882 92.2414 210.75 117.083 210.75C141.925 210.75 165.75 200.882 183.316 183.316C200.882 165.75 210.75 141.925 210.75 117.083C210.75 92.2414 200.882 68.4169 183.316 50.851C165.75 33.2851 141.925 23.4167 117.083 23.4167ZM117.083 140.5C123.294 140.5 129.25 142.967 133.641 147.359C138.033 151.75 140.5 157.706 140.5 163.917C140.5 170.127 138.033 176.083 133.641 180.475C129.25 184.866 123.294 187.333 117.083 187.333C110.873 187.333 104.917 184.866 100.525 180.475C96.1338 176.083 93.6667 170.127 93.6667 163.917C93.6667 157.706 96.1338 151.75 100.525 147.359C104.917 142.967 110.873 140.5 117.083 140.5ZM70.25 93.6667C76.4605 93.6667 82.4166 96.1338 86.8081 100.525C91.1996 104.917 93.6667 110.873 93.6667 117.083C93.6667 123.294 91.1996 129.25 86.8081 133.641C82.4166 138.033 76.4605 140.5 70.25 140.5C64.0395 140.5 58.0834 138.033 53.6919 133.641C49.3004 129.25 46.8333 123.294 46.8333 117.083C46.8333 110.873 49.3004 104.917 53.6919 100.525C58.0834 96.1338 64.0395 93.6667 70.25 93.6667ZM163.917 93.6667C170.127 93.6667 176.083 96.1338 180.475 100.525C184.866 104.917 187.333 110.873 187.333 117.083C187.333 123.294 184.866 129.25 180.475 133.641C176.083 138.033 170.127 140.5 163.917 140.5C157.706 140.5 151.75 138.033 147.359 133.641C142.967 129.25 140.5 123.294 140.5 117.083C140.5 110.873 142.967 104.917 147.359 100.525C151.75 96.1338 157.706 93.6667 163.917 93.6667ZM117.083 46.8333C123.294 46.8333 129.25 49.3004 133.641 53.6919C138.033 58.0834 140.5 64.0395 140.5 70.25C140.5 76.4605 138.033 82.4166 133.641 86.8081C129.25 91.1996 123.294 93.6667 117.083 93.6667C110.873 93.6667 104.917 91.1996 100.525 86.8081C96.1338 82.4166 93.6667 76.4605 93.6667 70.25C93.6667 64.0395 96.1338 58.0834 100.525 53.6919C104.917 49.3004 110.873 46.8333 117.083 46.8333Z" fill="black"/>
</svg>
