<svg width="25" height="32" viewBox="0 0 25 32" fill="none" xmlns="http://www.w3.org/2000/svg">
<path d="M1.96257 12.6332L0.923511 11.5677L1.96257 12.6332C2.2646 12.3386 2.68206 12.1667 3.125 12.1667H4.6875H6.1875V10.6667V7.61905C6.1875 6.00848 6.84319 4.45605 8.02301 3.30544C9.20411 2.15359 10.8139 1.5 12.5 1.5C13.3341 1.5 14.1592 1.66027 14.9279 1.97077C15.6965 2.28126 16.3925 2.73538 16.977 3.30544L18.0243 2.23157L16.977 3.30544C17.5614 3.87542 18.023 4.55003 18.3372 5.28976C18.6513 6.0294 18.8125 6.82078 18.8125 7.61905V10.6667V12.1667H20.3125H21.875C22.3179 12.1667 22.7354 12.3386 23.0374 12.6332L24.0847 11.5593L23.0374 12.6332C23.3382 12.9265 23.5 13.3161 23.5 13.7143V28.9524C23.5 29.3505 23.3382 29.7402 23.0374 30.0335L24.0847 31.1074L23.0374 30.0335C22.7354 30.328 22.3179 30.5 21.875 30.5H3.125C2.68206 30.5 2.2646 30.328 1.96257 30.0335L0.915291 31.1074L1.96257 30.0335C1.66183 29.7402 1.5 29.3505 1.5 28.9524V13.7143C1.5 13.3161 1.66183 12.9265 1.96257 12.6332ZM6.3125 10.6667V12.1667H7.8125H17.1875H18.6875V10.6667V7.61905C18.6875 5.9965 18.0262 4.44824 16.8618 3.31269C15.6987 2.17838 14.1291 1.54762 12.5 1.54762C10.8709 1.54762 9.30126 2.17838 8.13815 3.31269C6.97377 4.44824 6.3125 5.9965 6.3125 7.61905V10.6667ZM12.5 25.881C13.7147 25.881 14.8869 25.4107 15.757 24.5622C16.6283 23.7124 17.125 22.5517 17.125 21.3333C17.125 20.1149 16.6283 18.9542 15.757 18.1045C14.8869 17.2559 13.7147 16.7857 12.5 16.7857C11.2853 16.7857 10.1131 17.2559 9.24301 18.1045C8.37165 18.9542 7.875 20.1149 7.875 21.3333C7.875 22.5517 8.37165 23.7124 9.24301 24.5622C10.1131 25.4107 11.2853 25.881 12.5 25.881Z" stroke="white" stroke-width="3"/>
</svg>
