<svg width="178" height="178" viewBox="0 0 178 178" fill="none" xmlns="http://www.w3.org/2000/svg">
<path d="M127.216 111.95H119.176L116.326 109.202C126.3 97.5998 132.304 82.5375 132.304 66.1521C132.304 29.6158 102.688 0 66.1521 0C29.6158 0 0 29.6158 0 66.1521C0 102.688 29.6158 132.304 66.1521 132.304C82.5375 132.304 97.5998 126.3 109.202 116.326L111.95 119.176V127.216L162.836 178L178 162.836L127.216 111.95ZM66.1521 111.95C40.8107 111.95 20.3545 91.4934 20.3545 66.1521C20.3545 40.8107 40.8107 20.3545 66.1521 20.3545C91.4934 20.3545 111.95 40.8107 111.95 66.1521C111.95 91.4934 91.4934 111.95 66.1521 111.95Z" fill="#50BDBA"/>
</svg>
