<svg width="477" height="476" viewBox="0 0 477 476" fill="none" xmlns="http://www.w3.org/2000/svg">
<path d="M238.466 0C369.684 0 476.432 106.748 476.432 237.966C476.432 369.184 369.684 475.932 238.466 475.932C107.248 475.932 0.5 369.184 0.5 237.966C0.5 106.748 107.248 0 238.466 0ZM317.788 419.693V376.779C317.788 365.833 308.884 356.949 297.957 356.949H178.974C168.048 356.949 159.144 365.833 159.144 376.779V419.693C183.456 430.341 210.267 436.271 238.466 436.271C266.665 436.271 293.476 430.341 317.788 419.693ZM119.483 396.511V376.779C119.483 343.98 146.175 317.288 178.974 317.288H297.957C330.757 317.288 357.449 343.98 357.449 376.779V396.511C405.577 360.3 436.771 302.712 436.771 237.966C436.771 128.621 347.811 39.661 238.466 39.661C129.121 39.661 40.161 128.621 40.161 237.966C40.161 302.693 71.3543 360.3 119.483 396.511ZM238.466 118.983C282.212 118.983 317.788 154.559 317.788 198.305C317.788 242.051 282.212 277.627 238.466 277.627C194.72 277.627 159.144 242.051 159.144 198.305C159.144 154.559 194.72 118.983 238.466 118.983ZM238.466 237.966C260.339 237.966 278.127 220.178 278.127 198.305C278.127 176.432 260.339 158.644 238.466 158.644C216.593 158.644 198.805 176.432 198.805 198.305C198.805 220.178 216.593 237.966 238.466 237.966Z" fill="white"/>
</svg>
